<?xml version="1.0" standalone="no"?>
<svg viewBox="0 0 200 200" xmlns="http://www.w3.org/2000/svg">
  <path fill="rgb(128 128 128 / 0.1)" d="M45.9,-58.1C57.9,-54.4,64.9,-38.9,62.8,-25.2C60.7,-11.5,49.4,0.5,46.9,17.5C44.5,34.5,50.8,56.6,44.5,70C38.1,83.4,19.1,88.2,2.1,85.3C-14.8,82.3,-29.6,71.8,-41.3,60.1C-53,48.4,-61.6,35.6,-69.5,20.4C-77.4,5.3,-84.6,-12.3,-77.5,-22.4C-70.4,-32.5,-49,-35.2,-33.7,-37.9C-18.4,-40.5,-9.2,-43.1,3.9,-48.5C16.9,-53.8,33.9,-61.9,45.9,-58.1Z" transform="translate(100 100)" />
</svg>
