<?xml version="1.0" standalone="no"?>
<svg viewBox="0 0 200 200" xmlns="http://www.w3.org/2000/svg">
  <path fill="rgb(128 128 128 / 0.1)" d="M48.9,-64.9C61.5,-58,68.7,-41.4,66.2,-26.8C63.7,-12.2,51.5,0.3,43.6,11C35.8,21.7,32.3,30.7,25.7,37.5C19.2,44.3,9.6,49,-1.2,50.8C-12.1,52.5,-24.2,51.2,-33.2,45.2C-42.2,39.1,-48,28.3,-55.1,15.7C-62.2,3.2,-70.4,-11.2,-70.3,-26.4C-70.3,-41.7,-62,-57.8,-48.9,-64.5C-35.8,-71.3,-17.9,-68.7,0.1,-68.8C18.1,-69,36.2,-71.8,48.9,-64.9Z" transform="translate(100 100)" />
</svg>
