<?xml version="1.0" standalone="no"?>
<svg viewBox="0 0 200 200" xmlns="http://www.w3.org/2000/svg">
  <path fill="#F7D7C2" d="M43.1,-56.2C55.7,-50.2,65.6,-37.3,67.5,-23.8C69.4,-10.2,63.3,4.2,56.6,16.4C49.9,28.6,42.6,38.6,33.1,48.5C23.5,58.4,11.8,68.3,-3.1,72.6C-17.9,76.8,-35.9,75.4,-51.2,67.4C-66.6,59.4,-79.5,44.7,-79.2,29.5C-78.8,14.4,-65.3,-1.2,-58.5,-18C-51.6,-34.8,-51.5,-52.7,-42.8,-60C-34.2,-67.3,-17.1,-64,-0.9,-62.7C15.2,-61.5,30.5,-62.2,43.1,-56.2Z" transform="translate(100 100)" />
</svg>
